<svg width="1024" height="1024" viewBox="0 0 1024 1024" xmlns="http://www.w3.org/2000/svg">
  <defs>
    <radialGradient id="bg" cx="42%" cy="34%" r="75%">
      <stop offset="0%" stop-color="#f7e6c4" />
      <stop offset="60%" stop-color="#e8c184" />
      <stop offset="100%" stop-color="#cf9a54" />
    </radialGradient>
    <radialGradient id="b" cx="62%" cy="40%" r="75%">
      <stop offset="0%" stop-color="#9a4d1e" /><stop offset="45%" stop-color="#793914" /><stop offset="100%" stop-color="#4f2610" />
    </radialGradient>
    <radialGradient id="s" cx="58%" cy="34%" r="70%">
      <stop offset="0%" stop-color="#b5762f" /><stop offset="100%" stop-color="#5a2c12" />
    </radialGradient>
  </defs>

  <!-- 暖色圆角底 -->
  <rect x="72" y="72" width="880" height="880" rx="200" fill="url(#bg)" />

  <!-- 居中放大、略微倾斜的蟑螂（复用 68x40 viewBox 的画法） -->
  <g transform="translate(512 512) rotate(-18) scale(8.6) translate(-34 -20)">
    <g stroke="#3d1d0a" fill="none" stroke-width="2.2" stroke-linecap="round" stroke-linejoin="round">
      <path d="M47 13 L51 7 L54 2" /><path d="M40 12 L38 5 L33 1" /><path d="M33 13 L25 6 L17 2" />
      <path d="M47 27 L51 33 L54 38" /><path d="M40 28 L38 35 L33 39" /><path d="M33 27 L25 34 L17 38" />
    </g>
    <g stroke="#4a2410" fill="none" stroke-width="1.4" stroke-linecap="round">
      <path d="M57 17.5 Q64 12 67 5" /><path d="M57 22.5 Q64 28 67 35" />
    </g>
    <g stroke="#4a2410" stroke-width="1.4" stroke-linecap="round"><path d="M8 17 L2 12" /><path d="M8 23 L2 28" /></g>
    <ellipse cx="24" cy="20" rx="18" ry="12" fill="url(#b)" stroke="#2c1608" stroke-width="0.8" />
    <path d="M7 20 L42 20" stroke="#3a1c0c" opacity="0.55" stroke-width="0.8" />
    <ellipse cx="20" cy="14" rx="11" ry="3.6" fill="#ffffff" opacity="0.16" />
    <ellipse cx="45" cy="20" rx="8.5" ry="10.5" fill="url(#s)" stroke="#2c1608" stroke-width="0.8" />
    <ellipse cx="45.5" cy="20" rx="4.6" ry="6.6" fill="#421d08" opacity="0.85" />
    <ellipse cx="54" cy="20" rx="4" ry="5.2" fill="#3d1d0a" />
    <circle cx="52.5" cy="15.6" r="1.9" fill="#140a05" /><circle cx="52.5" cy="24.4" r="1.9" fill="#140a05" />
  </g>
</svg>
